<svg width="25" height="25" viewBox="0 0 25 25" fill="none" xmlns="http://www.w3.org/2000/svg">
<g id="Call">
<path id="Shape" d="M8.24474 3.41958L9.32133 3.07557C10.3302 2.75322 11.408 3.27417 11.84 4.29291L12.6998 6.32026C13.0744 7.20371 12.8665 8.24262 12.1858 8.88874L10.2915 10.6868C10.4083 11.7622 10.7699 12.8212 11.376 13.8637C11.9821 14.9063 12.7392 15.7711 13.6471 16.4581L15.9223 15.6995C16.7847 15.4119 17.7239 15.7424 18.2528 16.5196L19.4852 18.3301C20.1001 19.2335 19.9895 20.4799 19.2265 21.2459L18.4088 22.0668C17.5949 22.8839 16.4323 23.1803 15.3569 22.8449C12.8181 22.0529 10.4837 19.7017 8.35398 15.7912C6.2211 11.8751 5.46836 8.55248 6.09573 5.82348C6.35972 4.67516 7.17724 3.76068 8.24474 3.41958Z" fill="#D2DBFB"/>
</g>
</svg>

